HIERARCHY
ROOT Hips
{
	OFFSET -0.001795 -0.223333 0.028219
	CHANNELS 6 Xposition Yposition Zposition Zrotation Yrotation Xrotation
	JOINT LeftUpLeg
	{
		OFFSET 0.069520 -0.091406 -0.006815
		CHANNELS 3 Zrotation Yrotation Xrotation
		JOINT LeftLeg
		{
			OFFSET 0.034277 -0.375199 -0.004496
			CHANNELS 3 Zrotation Yrotation Xrotation
			JOINT LeftFoot
			{
				OFFSET -0.013596 -0.397961 -0.043693
				CHANNELS 3 Zrotation Yrotation Xrotation
				JOINT LeftToe
				{
					OFFSET 0.026358 -0.055791 0.119288
					CHANNELS 3 Zrotation Yrotation Xrotation
					End Site
					{
						OFFSET 0.000000 0.000000 0.000000
					}
				}
			}
		}
	}
	JOINT RightUpLeg
	{
		OFFSET -0.067670 -0.090522 -0.004320
		CHANNELS 3 Zrotation Yrotation Xrotation
		JOINT RightLeg
		{
			OFFSET -0.038290 -0.382569 -0.008850
			CHANNELS 3 Zrotation Yrotation Xrotation
			JOINT RightFoot
			{
				OFFSET 0.015774 -0.398415 -0.042312
				CHANNELS 3 Zrotation Yrotation Xrotation
				JOINT RightToe
				{
					OFFSET -0.025372 -0.048144 0.123348
					CHANNELS 3 Zrotation Yrotation Xrotation
					End Site
					{
						OFFSET 0.000000 0.000000 0.000000
					}
				}
			}
		}
	}
	JOINT Spine
	{
		OFFSET -0.002533 0.108963 -0.026696
		CHANNELS 3 Zrotation Yrotation Xrotation
		JOINT Spine1
		{
			OFFSET 0.005487 0.135180 0.001092
			CHANNELS 3 Zrotation Yrotation Xrotation
			JOINT Spine2
			{
				OFFSET 0.001457 0.052922 0.025425
				CHANNELS 3 Zrotation Yrotation Xrotation
				JOINT Neck
				{
					OFFSET -0.002778 0.213870 -0.042857
					CHANNELS 3 Zrotation Yrotation Xrotation
					JOINT Head
					{
						OFFSET 0.005152 0.064970 0.051349
						CHANNELS 3 Zrotation Yrotation Xrotation
						End Site
						{
							OFFSET 0.000000 0.000000 0.000000
						}
					}
				}
				JOINT LeftShoulder
				{
					OFFSET 0.078845 0.121749 -0.034090
					CHANNELS 3 Zrotation Yrotation Xrotation
					JOINT LeftArm
					{
						OFFSET 0.090977 0.030469 -0.008868
						CHANNELS 3 Zrotation Yrotation Xrotation
						JOINT LeftForeArm
						{
							OFFSET 0.259612 -0.012772 -0.027456
							CHANNELS 3 Zrotation Yrotation Xrotation
							JOINT LeftHand
							{
								OFFSET 0.249234 0.008986 -0.001171
								CHANNELS 3 Zrotation Yrotation Xrotation
								End Site
								{
									OFFSET 0.000000 0.000000 0.000000
								}
							}
						}
					}
				}
				JOINT RightShoulder
				{
					OFFSET -0.081759 0.118833 -0.038615
					CHANNELS 3 Zrotation Yrotation Xrotation
					JOINT RightArm
					{
						OFFSET -0.096012 0.032551 -0.009143
						CHANNELS 3 Zrotation Yrotation Xrotation
						JOINT RightForeArm
						{
							OFFSET -0.253742 -0.013329 -0.021401
							CHANNELS 3 Zrotation Yrotation Xrotation
							JOINT RightHand
							{
								OFFSET -0.255298 0.007772 -0.005559
								CHANNELS 3 Zrotation Yrotation Xrotation
								End Site
								{
									OFFSET 0.000000 0.000000 0.000000
								}
							}
						}
					}
				}
			}
		}
	}
}
MOTION
Frames: 5
Frame Time: 0.050000
0.000000 0.934035 0.000000 -26.119443 -5.752276 88.700993 -68.180064 19.848951 -1.579707 121.743076 -70.024437 24.174162 6.137170 29.869456 -92.299809 0.000000 0.000000 0.000000 4.662102 -2.939664 0.295591 41.357846 -15.201953 95.285856 -3.631108 -18.310543 -93.700000 0.000000 0.000000 0.000000 -5.819264 22.781244 85.260174 0.869918 0.522526 -28.322457 0.855085 4.885006 26.499479 10.137087 1.003672 -52.101090 0.000000 0.000000 0.000000 65.362759 6.786235 7.419259 11.094456 -16.075225 -1.193506 9.630756 18.851529 0.719418 0.000000 0.000000 0.000000 -66.464302 -6.038898 3.376389 -11.948743 21.687368 -1.434972 -24.102554 -31.103762 8.273646 0.000000 0.000000 0.000000
0.027353 0.956798 0.058940 -25.074292 -1.718046 93.335087 -56.763143 17.125708 -2.776365 15.891732 -49.171352 124.163505 1.185916 35.634349 -103.084892 0.000000 0.000000 0.000000 -8.841629 6.389914 38.603343 52.721255 -12.972161 42.748943 -8.489192 -19.927515 -87.925574 0.000000 0.000000 0.000000 -7.609388 19.345860 80.006758 0.335217 0.614291 -25.340192 2.372311 -0.689330 27.831321 7.324397 1.640330 -55.303628 0.000000 0.000000 0.000000 65.380054 6.167926 5.927129 4.974942 -10.184115 -0.249097 13.878444 13.934439 1.427550 0.000000 0.000000 0.000000 -67.996779 -4.459547 4.679457 -13.722042 18.414422 -1.548316 -24.160200 -36.520172 8.241017 0.000000 0.000000 0.000000
0.049646 0.971579 0.117066 -37.257694 -2.373706 98.428271 -55.561177 11.053360 -12.772291 -3.572158 -9.122030 105.378028 6.192721 26.619405 -104.187207 0.000000 0.000000 0.000000 -35.884086 31.852237 39.318432 55.869446 -25.852346 28.670409 -9.385149 -8.747903 -67.109035 0.000000 0.000000 0.000000 -18.546674 28.675081 73.250996 1.212901 0.576782 -27.291289 7.424134 10.382831 29.574448 3.781974 2.544461 -58.622500 0.000000 0.000000 0.000000 61.272228 5.894725 10.346848 10.525172 -13.854737 -1.190084 11.320853 18.952008 0.117143 0.000000 0.000000 0.000000 -60.411740 -8.570543 -1.116948 -16.842869 16.178181 0.091551 -27.509222 -28.428220 11.872423 0.000000 0.000000 0.000000
0.058753 0.982905 0.172653 -46.031911 4.497777 104.992353 -43.255442 7.987753 -24.214061 -30.770744 -3.018426 94.415842 2.954521 26.487421 -98.925367 0.000000 0.000000 0.000000 -64.724313 21.352270 20.155157 -4.985947 -31.459900 71.797195 -12.706185 20.857165 -59.625717 0.000000 0.000000 0.000000 -42.969301 22.472572 54.424013 3.446117 0.506734 -26.195878 17.867408 27.933292 34.577346 3.200418 1.133340 -62.910358 0.000000 0.000000 0.000000 60.301876 9.323720 18.856651 7.965484 -12.237557 -0.750393 13.536602 20.240289 -2.397259 0.000000 0.000000 0.000000 -61.794496 -5.786354 -6.744265 -17.507399 9.220622 2.503703 -28.901381 -25.938622 20.636211 0.000000 0.000000 0.000000
0.050208 0.973183 0.226395 -40.179395 9.864001 111.448425 -30.543108 8.094934 -31.327599 -57.632859 0.447811 96.638452 -7.686723 58.093782 -88.659571 0.000000 0.000000 0.000000 -86.656762 -19.659903 27.741134 -52.512589 -13.091440 56.168262 -24.998832 70.029886 -77.457358 0.000000 0.000000 0.000000 -76.058738 -12.745461 52.501857 2.828108 0.659833 -23.237853 64.712148 58.033380 70.559634 3.798004 -0.117117 -63.575631 0.000000 0.000000 0.000000 56.559070 4.776126 4.524700 6.848913 -11.143676 -0.982640 23.381613 15.731761 -9.758990 0.000000 0.000000 0.000000 -57.903670 -9.512615 10.042276 -18.454031 9.048894 3.240057 -24.384678 -41.395471 44.774914 0.000000 0.000000 0.000000
